<svg width="22" height="21" viewBox="0 0 22 21" fill="none" xmlns="http://www.w3.org/2000/svg">
<path fill-rule="evenodd" clip-rule="evenodd" d="M8.77835 10.6574L3.67712 9.0276C1.22571 8.24438 0 7.85277 0 7.12247C0 6.39217 1.22571 6.00056 3.67712 5.21734L18.1981 0.577936C19.8615 0.0465047 20.6931 -0.219211 21.1247 0.223436C21.5562 0.666082 21.2694 1.49072 20.6958 3.14001L15.8007 17.2157L15.8007 17.2158C15.0154 19.474 14.6227 20.6032 13.9117 20.6032C13.2007 20.6032 12.808 19.474 12.0227 17.2157L10.2236 12.0425L15.9534 6.5506C16.3521 6.16844 16.3655 5.53542 15.9833 5.13671C15.6012 4.73799 14.9681 4.72458 14.5694 5.10674L8.77835 10.6574Z" fill="white"/>
</svg>
